<?xml version="1.0" standalone="no"?><!DOCTYPE svg PUBLIC "-//W3C//DTD SVG 1.1//EN" "http://www.w3.org/Graphics/SVG/1.1/DTD/svg11.dtd"><svg t="1692264476308" class="icon" viewBox="0 0 1024 1024" version="1.1" xmlns="http://www.w3.org/2000/svg" p-id="4632" xmlns:xlink="http://www.w3.org/1999/xlink" width="200" height="200"><path d="M512 899.5c-213.668 0-387.5-173.832-387.5-387.5S298.332 124.5 512 124.5 899.5 298.332 899.5 512 725.668 899.5 512 899.5z" fill="#FFFFFF" p-id="4633"></path><path d="M512 137c-206.776 0-375 168.224-375 375s168.224 375 375 375 375-168.224 375-375-168.224-375-375-375m0-25c220.914 0 400 179.086 400 400S732.914 912 512 912 112 732.914 112 512s179.086-400 400-400z" fill="#707070" p-id="4634"></path><path d="M647.03 472.831C647.03 366.006 609.048 312 533.677 312q-71.217 0-115.727 78.338Q377 462.445 377 561.258c0 48.665 10.089 85.46 31.454 111.573C429.226 698.944 460.086 712 500.442 712c50.445 0 89.021-26.706 115.134-80.712 20.771-42.73 31.454-95.549 31.454-158.457z m-44.51 5.341c0 49.852-8.9 93.175-26.706 131.157-20.178 41.543-45.1 62.315-75.371 62.315-52.226 0-78.338-37.389-78.338-113.353q0-81.9 32.047-144.214c21.365-40.95 46.291-61.721 75.371-61.721 48.664 0 72.996 42.137 72.996 125.816z" fill="#707070" p-id="4635"></path></svg>