<?xml version="1.0" standalone="no"?><!DOCTYPE svg PUBLIC "-//W3C//DTD SVG 1.1//EN" "http://www.w3.org/Graphics/SVG/1.1/DTD/svg11.dtd"><svg t="1693996662903" class="icon" viewBox="0 0 1024 1024" version="1.1" xmlns="http://www.w3.org/2000/svg" p-id="25508" xmlns:xlink="http://www.w3.org/1999/xlink" width="200" height="200"><path d="M0 512a512 512 0 1 0 1024 0A512 512 0 1 0 0 512z" fill="#1868ED" p-id="25509"></path><path d="M244.87 467.478h89.043q44.522 0 44.522 44.522t-44.522 44.522H244.87q-44.522 0-44.522-44.522t44.522-44.522zM712.348 489.74h89.043q44.522 0 44.522 44.52 0 44.523-44.522 44.523h-89.043q-44.522 0-44.522-44.522t44.522-44.522z" fill="#A1C4FF" p-id="25510"></path><path d="M438.406 220.071a44.522 44.522 0 0 1 26.468 57.121l-84.213 229.91a44.522 44.522 0 0 1-83.612-30.653l84.28-229.91a44.522 44.522 0 0 1 57.077-26.468zM702.397 490.585a44.522 44.522 0 0 1 26.468 57.121l-84.257 229.91a44.522 44.522 0 0 1-83.612-30.653l84.28-229.91a44.522 44.522 0 0 1 57.121-26.468z" fill="#A1C4FF" p-id="25511"></path><path d="M404.68 214.194a44.522 44.522 0 0 1 57.322 26.068l187.325 500.335a44.522 44.522 0 1 1-83.389 31.165l-187.325-500.18a44.522 44.522 0 0 1 26.067-57.388z" fill="#A1C4FF" p-id="25512"></path></svg>