<?xml version="1.0" standalone="no"?><!DOCTYPE svg PUBLIC "-//W3C//DTD SVG 1.1//EN" "http://www.w3.org/Graphics/SVG/1.1/DTD/svg11.dtd"><svg t="1686626432083" class="icon" viewBox="0 0 1024 1024" version="1.1" xmlns="http://www.w3.org/2000/svg" p-id="4056" xmlns:xlink="http://www.w3.org/1999/xlink" width="200" height="200"><path d="M220 600c17.673 0 32 14.327 32 32v91.999l92 0.001c17.673 0 32 14.327 32 32 0 17.673-14.327 32-32 32h-92v92c0 17.673-14.327 32-32 32-17.673 0-32-14.327-32-32v-92H96c-17.673 0-32-14.327-32-32 0-17.673 14.327-32 32-32h92v-92c0-17.673 14.327-32 32-32z m498.268-440c35.307 0 63.928 28.654 63.928 64v147.387l125.63-80.353c21.065-13.473 48.617 1.386 49.166 26.21L957 318v368c0 25.024-27.341 40.268-48.533 27.366l-0.64-0.4-125.63-80.354V800c0 35.346-28.622 64-63.929 64H448v-68.001h266.272V228H134.923V577H67V224c0-35.346 28.622-64 63.928-64h587.34z m174.803 216.417l-110.875 70.916v109.332l110.875 70.916V376.417zM290.713 286c17.673 0 32 14.327 32 32 0 17.673-14.327 32-32 32h-65.854c-17.674 0-32-14.327-32-32 0-17.673 14.326-32 32-32h65.854z" fill="#000000" p-id="4057"></path></svg>