<?xml version="1.0" standalone="no"?><!DOCTYPE svg PUBLIC "-//W3C//DTD SVG 1.1//EN" "http://www.w3.org/Graphics/SVG/1.1/DTD/svg11.dtd"><svg t="1686625626539" class="icon" viewBox="0 0 1024 1024" version="1.1" xmlns="http://www.w3.org/2000/svg" p-id="2864" xmlns:xlink="http://www.w3.org/1999/xlink" width="200" height="200"><path d="M511.326316 1006.484211c-66.425263 0-130.964211-13.069474-191.730527-38.669474-58.610526-24.791579-111.292632-60.362105-156.56421-105.498948-45.271579-45.271579-80.707368-97.818947-105.498947-156.56421-25.6-60.766316-38.669474-125.305263-38.669474-191.730526s13.069474-130.964211 38.669474-191.730527C82.324211 263.68 117.894737 210.997895 163.031579 165.726316c45.271579-45.271579 97.818947-80.707368 156.56421-105.498948 60.766316-25.6 125.305263-38.669474 191.730527-38.669473s130.964211 13.069474 191.730526 38.669473C761.667368 85.018947 814.349474 120.589474 859.621053 165.726316c45.271579 45.271579 80.707368 97.818947 105.498947 156.56421 25.734737 60.766316 38.669474 125.170526 38.669474 191.730527s-13.069474 130.964211-38.669474 191.730526c-24.791579 58.610526-60.362105 111.292632-105.498947 156.56421-45.271579 45.271579-97.818947 80.707368-156.564211 105.498948-60.766316 25.6-125.305263 38.669474-191.730526 38.669474z m0-928.336843C270.955789 78.147368 75.452632 273.650526 75.452632 514.021053S270.955789 949.894737 511.326316 949.894737 947.2 754.391579 947.2 514.021053 751.696842 78.147368 511.326316 78.147368z" fill="#35C035" p-id="2865"></path><path d="M261.524211 329.970526h49.313684l109.271579 283.75579h-46.484211l-26.677895-73.162105H225.010526l-26.677894 73.162105H152.252632l109.271579-283.75579z m-23.444211 174.888421h95.797895L286.989474 376.454737h-1.616842l-47.292632 128.40421zM592.168421 435.738947V408.252632h42.172632v192c0 65.212632-31.932632 97.818947-95.797895 97.818947-28.294737 0-50.256842-5.389474-65.616842-16.303158-14.821053-10.913684-24.252632-27.755789-28.16-50.526316h42.172631c2.425263 12.126316 7.410526 20.749474 15.090527 25.869474 7.949474 4.985263 20.075789 7.545263 36.513684 7.545263 35.705263 0 53.625263-19.402105 53.625263-58.071579v-31.797895c-15.090526 22.770526-35.974737 34.223158-62.787368 34.223158-27.755789 0-50.391579-9.431579-67.503158-28.16-17.246316-18.324211-25.869474-43.115789-25.869474-74.374737 0-30.989474 8.623158-55.915789 25.869474-74.778947 16.976842-19.402105 39.477895-28.968421 67.503158-28.968421 27.082105 0 47.966316 11.048421 62.787368 33.010526zM494.484211 455.545263c-10.105263 11.722105-15.090526 28.564211-15.090527 50.930526 0 19.806316 3.907368 35.705263 11.856842 47.292632 9.296842 13.743158 24.117895 20.614737 44.463158 20.614737 17.785263 0 31.797895-5.928421 42.172632-17.92 9.835789-12.665263 14.686316-29.372632 14.686316-50.122105 0-21.153684-4.850526-38.130526-14.686316-50.930527-10.105263-12.395789-24.117895-18.728421-42.172632-18.728421-18.189474 0.269474-32.067368 6.467368-41.229473 18.863158zM845.743158 436.951579c16.168421 20.884211 24.387368 49.583158 24.656842 85.827368H714.644211c1.616842 20.345263 7.006316 35.705263 16.303157 46.08 9.835789 10.644211 22.905263 15.898947 39.343158 15.898948 14.551579 0 26.543158-3.503158 35.705263-10.374737 6.602105-4.985263 12.8-13.877895 18.728422-26.677895h42.172631c-4.985263 19.671579-14.416842 35.705263-28.16 48.101053-18.054737 15.629474-40.690526 23.444211-67.907368 23.44421-30.450526 0-54.433684-9.431579-71.949474-28.16-19.132632-19.806316-28.564211-46.618947-28.564211-80.303158 0-30.72 9.027368-56.32 27.082106-76.665263 17.515789-20.884211 41.498947-31.393684 71.949473-31.393684 33.684211 0 59.149474 11.452632 76.39579 34.223158z m-113.313684 14.282105c-9.027368 9.566316-14.686316 22.770526-17.111579 39.747369h110.888421c-3.907368-35.705263-22.635789-53.625263-56.050527-53.625264-15.764211 0-28.429474 4.581053-37.726315 13.877895z" fill="#35C035" p-id="2866"></path></svg>