<?xml version="1.0" standalone="no"?><!DOCTYPE svg PUBLIC "-//W3C//DTD SVG 1.1//EN" "http://www.w3.org/Graphics/SVG/1.1/DTD/svg11.dtd"><svg t="1731638438592" class="icon" viewBox="0 0 1024 1024" version="1.1" xmlns="http://www.w3.org/2000/svg" p-id="4295" xmlns:xlink="http://www.w3.org/1999/xlink" width="32" height="32"><path d="M821.037037 659.751661a402.201539 402.201539 0 0 0-566.372895-566.372895L215.321519 54.036142a36.563776 36.563776 0 0 0-51.70118 51.70118l39.342624 39.342623a401.909029 401.909029 0 0 0 246.732362 654.199086l-144.061278 147.278891A45.631593 45.631593 0 0 0 338.248935 1024h347.50213a45.485338 45.485338 0 0 0 32.541761-77.368951l-144.061279-147.278891a400.153968 400.153968 0 0 0 195.031183-87.899318l39.342623 39.342624a36.417521 36.417521 0 0 0 51.774308 0 36.563776 36.563776 0 0 0 0-51.70118l-39.342624-39.342623zM512 73.341816c181.429458 0 329.073987 147.644529 329.073987 329.073987 0 77.515206-28.08098 147.937039-73.127553 204.245254L637.560008 476.274631C650.35733 454.555748 658.255105 429.472997 658.255105 402.415803a146.255105 146.255105 0 0 0-146.255105-146.255105c-27.057194 0-52.139945 7.897776-73.858828 20.695097L307.754746 146.469369C364.062961 101.422797 434.484794 73.341816 512 73.341816z m-69.544303 311.230864L529.769995 471.886978c-5.777077 1.535679-11.481026 3.656378-17.769995 3.656378-40.293281 0-73.127553-32.834271-73.127553-73.127553 0-6.28897 2.120699-11.992919 3.58325-17.843123z m51.70118-51.70118c5.850204-1.462551 11.554153-3.58325 17.843123-3.58325 40.293281 0 73.127553 32.834271 73.127553 73.127553 0 6.28897-2.120699 11.992919-3.58325 17.843123L494.156877 332.8715zM403.771222 950.872447L512 840.23046 620.15565 950.872447H403.771222zM512 731.48979a329.439624 329.439624 0 0 1-329.073987-329.073987c0-77.515206 28.08098-147.937039 73.127553-204.245254L386.439992 328.556975C373.64267 350.275858 365.744895 375.358609 365.744895 402.415803a146.255105 146.255105 0 0 0 146.255105 146.255105c27.057194 0 52.139945-7.897776 73.858828-20.695097L716.245254 658.362237c-56.308215 45.046572-126.730049 73.127553-204.245254 73.127553z" p-id="4296" fill="#bfbfbf"></path></svg>