<svg t="1732512961408" class="icon" viewBox="0 0 1024 1024" version="1.1" xmlns="http://www.w3.org/2000/svg" p-id="4291" width="48" height="48"><path d="M952.889 810.667c0 46.933-38.4 85.333-85.333 85.333h-56.89c-46.933 0-85.333-38.4-85.333-85.333V668.444c0-46.933 38.4-85.333 85.334-85.333h56.889v-81.067c0-199.11-159.29-359.822-355.556-359.822-194.844 0-352.711 157.867-355.556 354.134v86.755h56.89c46.933 0 85.333 38.4 85.333 85.333v142.223c0 46.933-38.4 85.333-85.334 85.333h-56.889c-46.933 0-85.333-38.4-85.333-85.333V502.044C71.111 256 268.8 56.89 512 56.89c241.778 0 436.622 194.844 440.889 438.044v315.734zM512 611.556c24.178 0 42.667 18.488 42.667 42.666V824.89c0 24.178-18.49 42.667-42.667 42.667s-42.667-18.49-42.667-42.667V654.222c0-24.178 18.49-42.666 42.667-42.666z m-128 56.888c24.178 0 42.667 18.49 42.667 42.667V768c0 24.178-18.49 42.667-42.667 42.667s-42.667-18.49-42.667-42.667v-56.889c0-24.178 18.49-42.667 42.667-42.667z m256 0c24.178 0 42.667 18.49 42.667 42.667V768c0 24.178-18.49 42.667-42.667 42.667s-42.667-18.49-42.667-42.667v-56.889c0-24.178 18.49-42.667 42.667-42.667z" p-id="4292" fill="#808080"></path></svg>