<?xml version="1.0" standalone="no"?><!DOCTYPE svg PUBLIC "-//W3C//DTD SVG 1.1//EN" "http://www.w3.org/Graphics/SVG/1.1/DTD/svg11.dtd"><svg t="1685525638905" class="icon" viewBox="0 0 1024 1024" version="1.1" xmlns="http://www.w3.org/2000/svg" p-id="9596" xmlns:xlink="http://www.w3.org/1999/xlink" width="200" height="200"><path d="M78.475636 433.896727C150.155636 518.888727 331.869091 566.923636 512 566.923636c177.477818 0 360.541091-46.638545 436.224-129.303272 18.897455 26.577455 29.230545 55.389091 29.230545 85.410909 0 134.981818-208.384 214.295273-465.454545 214.295272S46.545455 657.966545 46.545455 523.031273c0-31.464727 11.310545-61.486545 31.930181-89.134546z m0 264.285091c71.68 84.945455 253.44 133.026909 433.524364 133.026909 177.477818 0 360.541091-46.685091 436.224-129.349818 18.897455 26.624 29.230545 55.389091 29.230545 85.410909 0 134.981818-208.384 214.295273-465.454545 214.295273S46.545455 922.251636 46.545455 787.269818c0-31.418182 11.310545-61.44 31.930181-89.088zM512 478.580364c-257.070545 0-465.454545-106.821818-465.454545-238.545455S254.929455 1.489455 512 1.489455s465.454545 106.775273 465.454545 238.545454c0 131.723636-208.384 238.545455-465.454545 238.545455z" fill="#FFA000" p-id="9597"></path></svg>