<?xml version="1.0" standalone="no"?><!DOCTYPE svg PUBLIC "-//W3C//DTD SVG 1.1//EN" "http://www.w3.org/Graphics/SVG/1.1/DTD/svg11.dtd"><svg t="1716356784599" class="icon" viewBox="0 0 1024 1024" version="1.1" xmlns="http://www.w3.org/2000/svg" p-id="3299" xmlns:xlink="http://www.w3.org/1999/xlink" width="48" height="48"><path d="M442.514286 73.142857c82.529524 64.24381 140.239238 126.610286 173.129143 187.099429 31.158857 57.295238 43.666286 115.907048 37.546666 175.835428l-1.219047 9.996191 6.095238-4.973715a174.055619 174.055619 0 0 0 49.249524-69.607619l2.681904-7.411809 7.704381-23.04c82.285714 55.734857 123.440762 150.064762 123.440762 283.062857C841.142857 823.515429 665.795048 950.857143 521.654857 950.857143c-144.11581 0-308.224-85.333333-334.750476-263.875048-26.550857-178.541714 83.480381-261.90019 158.427429-378.197333C395.288381 231.253333 427.690667 152.697905 442.514286 73.142857z" p-id="3300" fill="#d81e06"></path></svg>