<?xml version="1.0" standalone="no"?><!DOCTYPE svg PUBLIC "-//W3C//DTD SVG 1.1//EN" "http://www.w3.org/Graphics/SVG/1.1/DTD/svg11.dtd"><svg t="1685523002167" class="icon" viewBox="0 0 1024 1024" version="1.1" xmlns="http://www.w3.org/2000/svg" p-id="5478" xmlns:xlink="http://www.w3.org/1999/xlink" width="200" height="200"><path d="M474.663238 0l2.48668 0.146275c212.025998 6.509249 388.507107 157.757874 439.191486 356.399686-20.478537-11.555746-43.88258-19.747161-72.625669-26.036997a407.669166 407.669166 0 0 0-21.283052-48.270838h-146.275266c5.192772 15.066352 9.800443 30.27898 13.749875 45.564745-19.966574 4.534533-38.762946 10.970645-56.608528 19.015785a470.933219 470.933219 0 0 0-20.771087-64.58053H494.337262v142.76466h36.056853c-48.855939 58.071281-77.306478 136.621098-77.964717 225.995286 4.388258 29.474466 19.747161 65.82387 41.761588 105.537604l0.146276 70.504678c8.849654-9.069066 17.406757-18.284408 25.451896-27.646025 10.82437 17.260481 22.672666 35.032926 35.179201 52.805371l-8.557103 8.849654c4.31512-0.877652 8.557103-1.828441 12.725948-2.925506 12.433398 17.553032 25.451896 35.252339 38.616671 52.659096a462.010428 462.010428 0 0 1-120.603957 19.600886v0.219413h-23.111492C204.346547 922.996929 3.803157 714.335262 0.219413 464.058282H0v-4.168846A467.276337 467.276337 0 0 1 454.038426 0.292551 71.38233 71.38233 0 0 1 460.620813 0h14.042425z m-197.471609 703.364617H142.910935c58.290694 79.208057 143.422898 137.279337 241.793015 157.684737A579.835155 579.835155 0 0 1 277.191629 703.364617z m159.732591 0H344.478252a555.407185 555.407185 0 0 0 92.37283 123.6026v-123.6026zM224.459396 486.438397H62.971502c3.876295 55.218913 18.723234 107.878009 42.419827 155.490608h147.518606a571.058639 571.058639 0 0 1-28.450539-155.490608z m212.464824 0H283.774016c2.267267 52.659096 13.018499 104.952503 32.473109 155.490608h120.603957V486.438397zM253.05621 282.311263H106.415256a401.306192 401.306192 0 0 0-42.63924 142.76466H225.26391c3.144918-48.782801 12.433398-96.834226 27.7923-142.76466z m183.86801 0H318.88008a494.044711 494.044711 0 0 0-34.082137 142.76466h152.053139V282.311263zM546.338119 69.627027a580.493393 580.493393 0 0 1 104.806228 151.175487h132.086565C725.232769 144.958789 642.148418 89.520463 546.411256 69.627027z m-52.073995 34.082137v117.09335h88.423398a555.114635 555.114635 0 0 0-88.496536-117.09335zM384.70395 69.627027a406.425827 406.425827 0 0 0-239.379473 151.175487H277.923005A525.567031 525.567031 0 0 1 384.777087 69.627027z m52.147132 34.082137a553.651882 553.651882 0 0 0-88.423398 117.09335h88.423398z" fill="#576979" p-id="5479"></path><path d="M767.945147 374.098993c141.375045 0 255.981716 116.288837 255.981715 259.85801 0 98.150704-213.927577 342.796086-250.642668 383.972573l-4.680809 5.339048-0.585101 0.658238-0.658238-0.731376C753.537033 1007.982858 511.963431 738.324405 511.963431 634.030141c0-143.569174 114.606671-259.85801 255.981716-259.85801z m0 127.113206c-72.186844 0-130.69695 59.460896-130.69695 132.744804 0 73.210771 58.510106 132.598529 130.69695 132.598529 72.186844 0 130.69695-59.387758 130.69695-132.598529 0-73.283908-58.510106-132.744804-130.69695-132.744804z" fill="#576979" p-id="5480"></path></svg>