<?xml version="1.0" standalone="no"?><!DOCTYPE svg PUBLIC "-//W3C//DTD SVG 1.1//EN" "http://www.w3.org/Graphics/SVG/1.1/DTD/svg11.dtd"><svg t="1694672285618" class="icon" viewBox="0 0 1070 1024" version="1.1" xmlns="http://www.w3.org/2000/svg" p-id="6019" xmlns:xlink="http://www.w3.org/1999/xlink" width="208.984375" height="200"><path d="M302.344258 383.081703c-77.592774 0-140.472981 62.629161-140.472981 139.911432s62.880206 139.911432 140.472981 139.911433c77.592774 0 140.472981-62.629161 140.472981-139.911433S379.937032 383.081703 302.337652 383.081703z m468.232258 0c-77.592774 0-140.472981 62.629161-140.472981 139.911432s62.880206 139.911432 140.472981 139.911433c77.592774 0 140.472981-62.629161 140.472981-139.911433s-62.880206-139.911432-140.472981-139.911432zM705.694555 1024c-34.115716 0-64.21471-15.326968-84.952361-38.647742-20.737652 23.988026-50.836645 38.647742-84.952362 38.647742-34.10911 0-64.21471-15.326968-84.945755-38.647742-20.744258 23.988026-50.836645 38.647742-84.958967 38.647742-61.53249 0-111.701884-49.964594-111.701884-111.259252v-46.641548C82.944 817.475716 0 708.211613 0 532.995303 0 239.179974 240.13791 0 535.122581 0s535.122581 239.179974 535.12258 532.988697c0 175.21631-82.944 284.473806-254.183226 333.117109v46.634942c1.334503 61.955303-48.828284 111.259252-110.36738 111.259252z m64.881961-307.794581c107.024516 0 193.978632-86.610581 193.978632-193.212284 0-106.595097-86.954116-193.205677-193.978632-193.205677-107.024516 0-193.978632 86.610581-193.978632 193.205677s86.954116 193.205677 193.978632 193.205678z m-468.232258 0c107.024516 0 193.978632-86.610581 193.978632-193.212284 0-106.595097-86.954116-193.205677-193.978632-193.205677-107.024516 0-193.978632 86.610581-193.978632 193.205677s86.954116 193.205677 193.978632 193.205678z" fill="#d81e06" p-id="6020"></path></svg>