<?xml version="1.0" standalone="no"?><!DOCTYPE svg PUBLIC "-//W3C//DTD SVG 1.1//EN" "http://www.w3.org/Graphics/SVG/1.1/DTD/svg11.dtd"><svg t="1686217539398" class="icon" viewBox="0 0 1024 1024" version="1.1" xmlns="http://www.w3.org/2000/svg" p-id="9801" xmlns:xlink="http://www.w3.org/1999/xlink" width="200" height="200"><path d="M512 0A512 512 0 1 1 0 512 512 512 0 0 1 512 0zM337.016 291.416h479.64V206.4H246.888v264.64q0 155.2-63.736 249.8 32.8 41.84 63.736 88.208 90.128-121.688 90.128-337.36V291.416z m143.576 106.232H361.488v83.696H475.76q-16.744 163.2-172.216 252.376 38.632 39.912 66.952 75.328Q552.696 694.4 568.152 481.344h124.256q-1.288 174.48-14.488 197.648t-49.256 23.2a696.8 696.8 0 0 1-92.064-6.4q12.872 53.432 19.312 95.288 27.36 0.92 52.152 0.92a518.68 518.68 0 0 0 94.96-6.12 82.696 82.696 0 0 0 49.416-32.192q20.112-26.072 23.656-73.232t6.4-120.552q2.896-73.392 3.864-162.24H572.656q2.248-48 2.576-94.64H482.52q0 51.2-1.928 94.64z" p-id="9802" fill="#35C035"></path></svg>