<?xml version="1.0" standalone="no"?><!DOCTYPE svg PUBLIC "-//W3C//DTD SVG 1.1//EN" "http://www.w3.org/Graphics/SVG/1.1/DTD/svg11.dtd"><svg t="1684209157614" class="icon" viewBox="0 0 1024 1024" version="1.1" xmlns="http://www.w3.org/2000/svg" p-id="4206" xmlns:xlink="http://www.w3.org/1999/xlink" width="200" height="200"><path d="M877.7 300.2l-355.9-134c-16.4-6.2-34.9-3.9-49.3 6.1-14.5 10-23.1 26.4-23.1 44v69.9c-0.1 0.8-0.1 1.7 0 2.5v297.2c-32.7-41.7-84.7-68.7-143.2-68.7-98.6 0-178.9 76.8-178.9 171.2s80.3 171.2 178.9 171.2c97.9 0 177.7-75.7 178.9-169.2 0.1-0.6 0.1-1.3 0.1-1.9V313.3l391.6 147.4v123.2c-24.9-26.2-60.8-42.6-100.6-42.6-75.1 0-136.2 58.6-136.2 130.5 0 72 61.1 130.5 136.2 130.5s136.2-58.6 136.2-130.5V350.3c0-22.2-14-42.3-34.7-50.1z" p-id="4207" fill="#13227a"></path></svg>