<?xml version="1.0" standalone="no"?><!DOCTYPE svg PUBLIC "-//W3C//DTD SVG 1.1//EN" "http://www.w3.org/Graphics/SVG/1.1/DTD/svg11.dtd"><svg t="1693973231597" class="icon" viewBox="0 0 1024 1024" version="1.1" xmlns="http://www.w3.org/2000/svg" p-id="21438" xmlns:xlink="http://www.w3.org/1999/xlink" width="200" height="200"><path d="M458.984727 863.697455a53.061818 53.061818 0 0 1 53.341091-52.968728c29.090909 0 53.341091 23.831273 53.341091 52.968728 0 29.835636-23.552 53.666909-53.341091 53.666909a53.620364 53.620364 0 0 1-53.341091-53.666909zM292.724364 106.635636h438.504727c25.646545 0 47.150545 21.178182 47.150545 47.010909v524.613819a46.545455 46.545455 0 0 1-47.150545 47.010909H292.724364a47.010909 47.010909 0 0 1-47.104-47.010909V153.646545c0.698182-25.832727 21.504-47.010909 47.104-47.010909zM139.636364 938.542545C139.636364 985.6 177.710545 1024 224.861091 1024h574.277818A85.410909 85.410909 0 0 0 884.363636 938.542545V85.457455A85.410909 85.410909 0 0 0 799.138909 0H225.512727C178.408727 0 140.334545 38.4 140.334545 85.457455L139.636364 938.542545z" fill="#409EFF" p-id="21439"></path></svg>