<?xml version="1.0" standalone="no"?><!DOCTYPE svg PUBLIC "-//W3C//DTD SVG 1.1//EN" "http://www.w3.org/Graphics/SVG/1.1/DTD/svg11.dtd"><svg t="1693976200562" class="icon" viewBox="0 0 1024 1024" version="1.1" xmlns="http://www.w3.org/2000/svg" p-id="24521" xmlns:xlink="http://www.w3.org/1999/xlink" width="200" height="200"><path d="M778 928.2H248c-82.8 0-150-67.2-150-150v-530c0-82.8 67.2-150 150-150h530c82.8 0 150 67.2 150 150v530c0 82.9-67.2 150-150 150z" fill="#FF6652" p-id="24522"></path><path d="M250.3 672.6c5.8-1.4 14.4-4.3 26-8.7 7.2-2.9 24.6-9.4 52.1-19.5V436h-71.6v-36.9h71.6V266.7h39.1v132.4h67.3V436h-67.3v193.2c8.7-2.9 21-7.9 36.9-15.2 15.9-5.8 27.5-10.1 34.7-13 1.4 17.4 2.9 31.8 4.3 43.4-20.3 5.8-57.9 20.3-112.9 43.4-30.4 11.6-52.1 20.3-65.1 26l-15.1-41.2z m182.4-199.7c42-68 73.8-138.2 95.5-210.6l43.4 13c-2.9 7.3-8 19.5-15.2 36.9-5.8 14.5-10.1 25.3-13 32.6h206.2c-5.8 176.6-9.4 285.8-10.9 327.8 1.4 65.1-32.6 95.5-102 91.2h-82.5c-1.5-21.7-3.6-36.9-6.5-45.6 34.7 2.9 63.7 4.3 86.8 4.3 43.4 4.3 65.1-14.4 65.1-56.4 1.4-49.2 3.6-144 6.5-284.4H526c-14.5 36.2-33.3 73.8-56.4 112.9-7.3-4.3-16.7-9.4-28.2-15.2-4.4-4.4-7.3-6.5-8.7-6.5z m21.7 164.9c26-8.7 83.2-32.6 171.5-71.6 21.7-8.7 37.6-15.2 47.8-19.5 2.9 17.4 5.1 31.1 6.5 41.2-17.4 8.7-55 25.3-112.9 49.9-46.3 20.3-78.1 34-95.5 41.2l-17.4-41.2z m52.1-173.6l30.4-23.9c5.8 4.3 13.7 11.6 23.9 21.7 27.5 24.6 48.5 44.9 63 60.8l-32.6 30.4c-14.5-17.4-42.8-47-84.7-89z" fill="#FFFFFF" p-id="24523"></path></svg>