<?xml version="1.0" standalone="no"?><!DOCTYPE svg PUBLIC "-//W3C//DTD SVG 1.1//EN" "http://www.w3.org/Graphics/SVG/1.1/DTD/svg11.dtd"><svg t="1684402338232" class="icon" viewBox="0 0 1024 1024" version="1.1" xmlns="http://www.w3.org/2000/svg" p-id="7614" xmlns:xlink="http://www.w3.org/1999/xlink" width="200" height="200"><path d="M301.013333 704.213333h423.04v89.984H301.013333zM301.013333 581.973333h423.04v87.765334H301.013333zM448.384 263.978667h128.256v170.624h-128.256z" fill="" p-id="7615"></path><path d="M810.666667 0H213.333333a213.333333 213.333333 0 0 0-213.333333 213.333333v597.333334a213.333333 213.333333 0 0 0 213.333333 213.333333h597.333334a213.333333 213.333333 0 0 0 213.333333-213.333333V213.333333a213.333333 213.333333 0 0 0-213.333333-213.333333z m-45.013334 863.957333h-41.6v-34.517333H301.013333v34.517333h-40.874666v-317.269333h505.514666v317.269333z m105.002667-394.112H154.410667v-35.242666h253.866666V263.978667H178.773333V228.693333h224.256a3018.410667 3018.410667 0 0 0-64.512-70.485333l29.994667-22.485333a1836.714667 1836.714667 0 0 1 73.130667 75.392l-26.24 17.578666h169.898666c27.989333-33.749333 51.754667-64 71.253334-90.752l36.736 20.266667a1128.576 1128.576 0 0 1-60.757334 70.485333h213.76v35.242667h-229.888v170.624h254.250667v35.285333zM228.650667 317.952l30.762666-22.485333c33.237333 31.232 60.586667 59.008 82.090667 83.242666l-32.213333 25.856a1799.04 1799.04 0 0 0-80.64-86.613333z m568.533333 1.493333a1613.184 1613.184 0 0 1-85.504 84.394667l-29.610667-25.130667a2340.010667 2340.010667 0 0 0 82.858667-82.517333l32.256 23.253333z" fill="" p-id="7616"></path></svg>