<?xml version="1.0" standalone="no"?><!DOCTYPE svg PUBLIC "-//W3C//DTD SVG 1.1//EN" "http://www.w3.org/Graphics/SVG/1.1/DTD/svg11.dtd"><svg t="1685525158312" class="icon" viewBox="0 0 1024 1024" version="1.1" xmlns="http://www.w3.org/2000/svg" p-id="7723" xmlns:xlink="http://www.w3.org/1999/xlink" width="200" height="200"><path d="M505.976471 933.647059c-42.164706 0-78.305882-6.023529-114.447059-18.070588-66.258824-18.070588-126.494118-54.211765-180.705883-102.4-48.188235-48.188235-90.352941-108.423529-108.423529-174.682353C72.282353 572.235294 66.258824 499.952941 78.305882 433.694118 90.352941 361.411765 120.470588 295.152941 162.635294 240.941176c42.164706-54.211765 96.376471-102.4 162.635294-132.517647 18.070588-6.023529 42.164706 0 48.188236 18.070589 6.023529 18.070588 0 42.164706-18.070589 48.188235-54.211765 30.117647-102.4 66.258824-138.541176 108.423529-30.117647 48.188235-54.211765 102.4-66.258824 162.635294-12.047059 60.235294-6.023529 114.447059 12.047059 174.682353 18.070588 54.211765 48.188235 102.4 90.352941 144.564706s96.376471 72.282353 150.588236 84.329412c54.211765 18.070588 114.447059 18.070588 174.682353 6.023529 54.211765-12.047059 108.423529-36.141176 156.611764-78.305882 42.164706-36.141176 78.305882-84.329412 102.4-138.541176 6.023529-18.070588 30.117647-30.117647 48.188236-18.070589 18.070588 6.023529 30.117647 30.117647 18.070588 48.188236-24.094118 66.258824-66.258824 120.470588-120.470588 168.658823-54.211765 42.164706-120.470588 78.305882-186.729412 90.352941-30.117647 0-60.235294 6.023529-90.352941 6.02353z" fill="#A0A3BD" p-id="7724"></path><path d="M849.317647 499.952941H632.470588c-66.258824 0-126.494118-54.211765-126.494117-126.494117V156.611765c0-36.141176 18.070588-72.282353 42.164705-96.376471 24.094118-18.070588 54.211765-30.117647 90.352942-18.070588 24.094118 6.023529 48.188235 12.047059 66.258823 24.094118 54.211765 24.094118 96.376471 54.211765 138.541177 90.352941 42.164706 42.164706 72.282353 84.329412 90.352941 138.541176 12.047059 24.094118 18.070588 48.188235 24.094117 66.258824 6.023529 30.117647 0 60.235294-18.070588 90.352941s-54.211765 48.188235-90.352941 48.188235zM614.4 114.447059c-6.023529 0-12.047059 0-18.070588 6.023529-12.047059 6.023529-18.070588 24.094118-18.070588 36.141177v216.847059c0 30.117647 24.094118 54.211765 54.211764 54.211764h216.847059c12.047059 0 30.117647-6.023529 36.141177-18.070588 6.023529-6.023529 6.023529-18.070588 6.023529-24.094118-6.023529-24.094118-12.047059-42.164706-18.070588-60.235294-18.070588-42.164706-42.164706-84.329412-78.305883-114.447059-36.141176-36.141176-72.282353-60.235294-114.447058-78.305882-18.070588-6.023529-36.141176-12.047059-60.235295-18.070588h-6.023529z" fill="#A0A3BD" p-id="7725"></path></svg>