<?xml version="1.0" standalone="no"?><!DOCTYPE svg PUBLIC "-//W3C//DTD SVG 1.1//EN" "http://www.w3.org/Graphics/SVG/1.1/DTD/svg11.dtd"><svg t="1683786301837" class="icon" viewBox="0 0 1024 1024" version="1.1" xmlns="http://www.w3.org/2000/svg" p-id="12578" xmlns:xlink="http://www.w3.org/1999/xlink" width="200" height="200"><path d="M406.4 32c98.304 33.216 135.616 105.12 158.048 179.712l4.768 16.608 4.352 16.576 14.016 56.832 4.064 15.52c12.544 45.856 28.384 85.216 61.152 107.36 37.536-19.04 45.056-38.08 49.216-62.528l3.744-24.64a190.176 190.176 0 0 1 17.44-55.584c86.08 65.056 140.8 204 140.8 321.216 0 184.16-137.536 335.744-314.176 354.88C601.28 948.288 640 905.12 640 853.312c0-71.104-37.344-142.208-112-213.312l-3.84 19.392c-9.76 46.208-20.928 75.296-33.504 87.264a179.2 179.2 0 0 1-15.872 13.376l-7.744 5.632-14.688 10.336c-20.928 15.296-36.352 31.616-36.352 77.344 0 56.96 46.912 103.52 105.984 106.496L512 960C317.6 960 160 800.192 160 603.072c0-144.544 49.92-224.064 104.768-290.56l12.288-14.56 36.672-42.464 11.808-14.144C370.208 186.88 406.4 127.744 406.4 32z" fill="#d81e06" p-id="12579"></path></svg>