<?xml version="1.0" standalone="no"?><!DOCTYPE svg PUBLIC "-//W3C//DTD SVG 1.1//EN" "http://www.w3.org/Graphics/SVG/1.1/DTD/svg11.dtd"><svg t="1687851490792" class="icon" viewBox="0 0 1024 1024" version="1.1" xmlns="http://www.w3.org/2000/svg" p-id="19044" xmlns:xlink="http://www.w3.org/1999/xlink" width="200" height="200"><path d="M512 832c40.774 0 73.29-33.032 73.29-73.29v-653.42c0-40.258-32.516-73.29-73.29-73.29s-73.29 33.032-73.29 73.29v652.903c0 40.774 33.032 73.807 73.29 73.807zM231.226 832c40.774 0 73.29-33.032 73.29-73.29v-252.903c0-40.774-33.032-73.29-73.29-73.29s-73.29 33.032-73.29 73.29v252.903c0 40.258 32.516 73.29 73.29 73.29zM792.774 832c40.774 0 73.29-33.032 73.29-73.29v-371.613c0-40.774-33.032-73.29-73.29-73.29s-73.29 33.032-73.29 73.29v371.613c0 40.258 33.032 73.29 73.29 73.29zM886.709 904.258h-749.42c-24.258 0-43.871 19.613-43.871 43.871s19.613 43.871 43.871 43.871h749.42c24.258 0 43.871-19.613 43.871-43.871s-19.613-43.871-43.871-43.871z" p-id="19045" fill="#1296db"></path></svg>