<?xml version="1.0" standalone="no"?><!DOCTYPE svg PUBLIC "-//W3C//DTD SVG 1.1//EN" "http://www.w3.org/Graphics/SVG/1.1/DTD/svg11.dtd"><svg t="1683785744672" class="icon" viewBox="0 0 1024 1024" version="1.1" xmlns="http://www.w3.org/2000/svg" p-id="7900" xmlns:xlink="http://www.w3.org/1999/xlink" width="200" height="200"><path d="M409.1 411.4c-0.1-48.2 6.1-95.4 21.6-141.1 12.2-35.8 29.1-69.1 54-97.9 26.8-31 59.4-53.6 97.3-68.8 28.2-11.3 57.4-17.5 87.6-20 43.2-3.6 85.9-1.2 127.9 10.1 51.7 14 96.3 39.8 132.6 79.4 26.3 28.7 45.7 61.8 59.1 98.3 11.8 32.2 18.3 65.5 20.1 99.8 1.8 35.2-1.8 69.7-12.9 103.2-9.2 27.8-24.3 52.2-43.4 74.3-14.4 16.5-30.3 31.5-45.6 47.1-14.6 14.9-27.8 30.8-36.9 49.8-9.1 18.8-13.7 38.8-15.6 59.5-2.1 22.8-2 45.8-4.9 68.6-4.1 32-10.8 63.4-24.5 92.9-12.2 26.1-28.9 48.3-54.4 62.9-14.8 8.4-30.8 12.9-47.9 13.5-23.6 0.8-46.6-1.8-68.7-10.5-42.3-16.5-67.4-47.8-78.5-91.1-4.4-16.9-5.9-34.1-4.2-51.5 1-10 6.7-17 15.7-21.2 9.6-4.5 19.1-3.5 27.8 2.4 8.5 5.8 12.2 14.3 11.9 24.5-0.3 12.2 0.6 24.1 4 35.9 8.6 29.7 28.2 47.4 58.4 53.1 11.4 2.2 22.9 3.4 34.4 2.3 17.8-1.7 30.4-11.6 40.3-25.7 13.5-19.2 20.2-41 25.1-63.6 5.6-26 7.6-52.4 8.4-78.9 1.6-55.3 18.8-104.9 55.6-146.9 14.5-16.6 30.8-31.4 46.1-47.2 18.8-19.3 34.7-40.4 43.6-66.3 4.9-14.4 8.1-29.1 9.6-44.2 3.8-40.7-0.8-80.4-14.3-119-13.3-38.2-34.1-71.6-64.3-98.8-25.6-23.1-55.3-38.6-88.4-47.8-23.4-6.5-47.3-9.5-71.6-10.1-29.7-0.8-59 1.7-87.8 9.3-36.4 9.7-68.2 27.3-93.8 55.4-23.7 26-39.8 56.2-50.3 89.5-7.7 24.6-12.8 49.7-15.1 75.4-1.4 15.7-2.8 31.5-2.1 47.3 0.4 8.7 0.3 17.5 1 26.2 1.2 14-10.3 26.5-25 28.3-14 1.7-27.5-7.8-30.1-21.7-2.2-12.2-1.7-24.5-1.8-36.7z" p-id="7901" fill="#1afa29"></path><path d="M387.9 585.5c-3.4 8.1-4.9 15.8-6.3 23.5-3.4 18.9-5.1 38.1-6.8 57.2-2 22.7-4.1 45.4-6.3 68.1-1.8 18.6-4.4 37.1-10.7 54.9-3.8 10.7-8.5 20.9-17.9 28.2-15.9 12.4-36.8 11.9-52.4-1-13.4-11.1-19.8-26.1-24.2-42.2-5.2-18.7-7.3-38-8.4-57.4-1.1-19.3-1.9-38.7-1.4-58.1 0.7-30.4 1.4-60.7 2.6-91 0.5-12.6-0.1-25.3 1.1-37.9 0.3-3.4-1.3-5.5-4.5-6.5-4-1.2-8.4 0.1-10.6 3.5-2.7 4.1-4 8.8-4.1 13.7-0.5 21.4 0.9 42.9 1.2 64.3 0.3 17.3 0.5 34.6-0.1 51.9-0.5 13.6-1 27.2-2.8 40.7-2.6 19.6-6.2 38.8-16.7 56-17.7 28.8-56.6 29.5-75.1 1.2-9.3-14.2-12.9-30.2-15.7-46.5-3.4-19.9-4.7-40.1-6.7-60.2-0.7-6.8-1.6-13.6-2.9-20.4-0.5-2.7-1.7-3.9-4.6-4-23.9-1.1-47.8-0.1-71.6 1.5-11.2 0.8-20.8-3.6-25.4-12.5-4.5-8.7-3.2-18.8 3.5-26.5 5.1-5.9 11.9-7.6 19.3-8 22.4-1.1 44.7-2.4 67.2-1.7 8.9 0.3 17.9 0.7 26.7 2.3 14.7 2.7 22.6 12.8 27.3 25.9 4.6 12.9 5.9 26.5 7.4 40 2.5 22.1 3.5 44.4 8.3 66.2 0.8 3.7 2.1 7.4 3.2 11.1 0.2 0.8 0.8 1.4 1.2 2.2 2.1-0.7 2-2.6 2.5-4.1 4.6-13.5 6.3-27.6 7.4-41.7 1.2-15.3 2-30.7 1.7-46.1-0.6-28.6-1.7-57.1-2-85.7-0.2-18.4 3.9-35.7 15.9-50.4 18.9-23.1 53.5-27 77-8.5 13.4 10.6 20.3 24.5 19.9 41.5-0.8 33.9-2.3 67.8-3 101.8-0.7 34.3-1.2 68.7 2.4 103 1.4 12.8 3.2 25.7 8.5 37.6 0.3 0.7 0.7 1.5 1.3 2.6 2.5-4.5 3.3-9.2 4.2-13.7 3.6-17 5.3-34.2 6.9-51.4 2.1-22.8 4.3-45.7 6.3-68.5 1.6-18.8 3.9-37.4 8.5-55.7 2.4-9.5 5.9-18.6 10.7-27.1 18.3-32.3 58-28.6 75.9-0.9 9.4 14.6 13.2 31 16.1 47.7 4 22.7 5.9 45.7 9.1 68.6 1.2 8.3 2.5 16.6 5.5 24.5 0.4 0.9 0.3 2.5 1.7 2.5 1 0 1.5-1.1 2-1.9 4.4-6.8 7.2-14.2 9.3-21.9 5.6-20.1 8.2-40.6 9.2-61.4 0.2-5.1 0.4-10.2 0.8-15.2 0.9-11.5 10.7-20.7 22.3-20.7 23.1-0.1 46.2-0.1 69.3 0 12.2 0 22.4 10.6 22.5 22.9 0.1 11.9-9.8 23.5-21.2 23.3-13.6-0.3-27.2-0.1-40.8-0.3-6.8-0.1-6.6 0-7.2 6.7-2.6 28-6.6 55.7-18.9 81.4-7.8 16.2-18.5 29.3-36.5 34.7-20 6-39.4-1.6-50-19.6-8.1-13.8-11.4-29.1-13.7-44.6-4.1-27.1-5.9-54.6-11.6-81.5-1.3-5.7-2.6-10.9-5.8-16.4zM699.1 228c28.6-0.4 56.5 6 81.7 22.2 32.6 21 51 51.8 59.3 89.2 5.3 23.5 4.5 46.4-5.4 68.6-11.4 25.4-30.1 44-54.1 57.5-8.7 4.9-17.7 8.7-27.2 11.8-5.5 1.8-10.8 4.1-15.9 6.8-6.3 3.3-10.2 8.2-10.6 15.5-0.1 1.6-0.5 3.3-0.6 4.9-1 9.9 0.6 17.8 8.6 25.7 13.5 13.3 20.7 30.9 25.7 49.2 6 22.3 8.4 45 4.8 67.8-5.1 32.1-22.8 55.6-51.9 70.5-11.5 5.9-23.7 9.6-36.4 11.4-13.8 2-27.7-8.5-30.3-22.3-2.7-14.7 6-28.7 20.2-32.4 3.6-0.9 7.3-1.5 10.8-2.5 22.6-6.6 33.5-21.2 33-44.6-0.4-15.8-2.3-31.5-8.8-46.2-3-6.6-6.9-12.3-12.6-17-8.7-7.1-14.1-16.5-16.6-27.4-4.9-20.8-3.8-41.6 2.8-61.8 5.9-17.8 18.3-30.4 34.4-39.4 8.1-4.5 16.5-8.1 25.3-11.1 10.1-3.4 19.7-7.8 28.2-14.3 18.8-14.5 27.7-32.9 22.4-56.9-4.4-20-12.7-37.7-28.8-51.1-11.1-9.3-24.1-14.1-38.2-16.3-16-2.6-32-2.2-47.9 1-30.8 6.3-49.7 26.4-55.4 58.3-1 5.4-0.7 11-1.5 16.4-2.4 15.5-15 25.2-30.9 23.8-14-1.2-25.2-13.9-24.8-28.6 0.6-23.2 6.4-45 17.7-65.4 13.7-24.7 34.2-41.5 60.1-52.2 19.9-8.3 40.6-11.3 62.9-11.1z" p-id="7902" fill="#1afa29"></path></svg>