<?xml version="1.0" standalone="no"?><!DOCTYPE svg PUBLIC "-//W3C//DTD SVG 1.1//EN" "http://www.w3.org/Graphics/SVG/1.1/DTD/svg11.dtd"><svg t="1700212110673" class="icon" viewBox="0 0 1024 1024" version="1.1" xmlns="http://www.w3.org/2000/svg" p-id="4304" xmlns:xlink="http://www.w3.org/1999/xlink" width="200" height="200"><path d="M0 1024V0h1024v1024zM972.8 51.2H51.2v921.6h921.6z" fill="#2c2c2c" p-id="4305"></path><path d="M508.672 329.728v76.8h206.3872v177.8688h97.28v37.3248h-268.544q57.088 117.504 274.4832 182.9888l-21.9648 35.84q-233.8816-80.128-291.84-218.88H482.304A303.616 303.616 0 0 1 430.08 710.2976c-49.0496 54.8864-129.536 98.0992-241.5616 130.304l-22.6816-35.1232c111.2576-30.0032 189.44-71.0144 236.4416-123.6992a295.8336 295.8336 0 0 0 35.84-60.0064H165.376v-37.3248H261.12V406.5792h207.872v-76.8zM345.4464 235.52V166.5024h39.5264V235.52h207.872V166.5024h39.5264V235.52H808.96v38.0416h-176.5888v76.8h-39.5264v-76.8h-207.872v76.8h-39.5264v-76.8H168.96V235.52z m106.8544 349.1328a460.0832 460.0832 0 0 0 16.8448-112.64V443.904H300.8v140.544z m223.232 0V443.904H508.672v27.8016a488.3968 488.3968 0 0 1-14.6432 112.64z" fill="#2c2c2c" p-id="4306"></path></svg>