<?xml version="1.0" standalone="no"?><!DOCTYPE svg PUBLIC "-//W3C//DTD SVG 1.1//EN" "http://www.w3.org/Graphics/SVG/1.1/DTD/svg11.dtd"><svg t="1692938339545" class="icon" viewBox="0 0 1024 1024" version="1.1" xmlns="http://www.w3.org/2000/svg" p-id="4145" xmlns:xlink="http://www.w3.org/1999/xlink" width="200" height="200"><path d="M448.069189 481.28h220.851892v46.218378h-220.851892zM448.069189 396.592432h220.851892V442.810811h-220.851892z" fill="#1296db" p-id="4146"></path><path d="M512 0A512 512 0 1 0 1024 512 512 512 0 0 0 512 0zM244.099459 715.416216c48.985946-85.794595 53.137297-209.781622 53.137298-297.513513V254.062703h470.486486v48.985946H350.374054v114.577297c0 94.097297-8.025946 233.029189-60.056216 324.635676a193.72973 193.72973 0 0 0-46.495135-26.845406z m96.864865-13.284324a536.354595 536.354595 0 0 0 94.097298-110.702703l51.2 16.605406a873.721081 873.721081 0 0 1-100.185946 122.326486 317.993514 317.993514 0 0 0-45.388108-28.229189z m243.26919-3.321081c0 26.015135-4.704865 39.852973-23.524325 47.325405a278.970811 278.970811 0 0 1-90.499459 8.025946 196.774054 196.774054 0 0 0-15.498379-47.325405h66.975135c8.302703 0 11.07027-2.767568 11.070271-9.686487v-128.415135h-136.717838v-213.932973h107.658378a426.205405 426.205405 0 0 0 19.64973-47.878919l63.377297 8.57946c-8.025946 13.284324-15.498378 27.675676-23.524324 39.299459h160.795676v213.932973h-138.378379z m138.378378 35.701621c-20.756757-30.443243-65.591351-83.027027-97.971892-118.728648l42.067027-22.970811c32.934054 35.701622 78.322162 84.687568 101.56973 114.854054z" fill="#1296db" p-id="4147"></path></svg>