<?xml version="1.0" standalone="no"?><!DOCTYPE svg PUBLIC "-//W3C//DTD SVG 1.1//EN" "http://www.w3.org/Graphics/SVG/1.1/DTD/svg11.dtd"><svg t="1694415851135" class="icon" viewBox="0 0 1024 1024" version="1.1" xmlns="http://www.w3.org/2000/svg" p-id="4085" xmlns:xlink="http://www.w3.org/1999/xlink" width="200" height="200"><path d="M512 1024C229.248 1024 0 794.752 0 512S229.248 0 512 0s512 229.248 512 512-229.248 512-512 512z m0-85.333333c235.648 0 426.666667-191.018667 426.666667-426.666667S747.648 85.333333 512 85.333333 85.333333 276.352 85.333333 512s191.018667 426.666667 426.666667 426.666667zM355.498667 381.866667h313.002666v117.674666H355.498667V381.866667z m257.450666 77.653333v-37.034667H411.050667v37.034667h201.898666zM482.133333 234.922667h59.733334v67.498666h59.136c12.544-20.309333 23.296-41.216 32.853333-63.914666l54.954667 19.114666a266.709333 266.709333 0 0 1-25.685334 44.8h102.741334v125.44h-56.149334V351.402667H314.282667v77.056h-56.746667V302.421333h106.325333c-8.96-15.530667-19.114667-29.866667-29.866666-43.008l53.76-19.712c13.141333 17.322667 25.088 38.229333 35.84 62.72H482.133333V234.922667z m221.610667 290.304v165.461333h-56.149333v-115.285333H377.002667v121.856H320.853333V525.226667h382.890667z m-152.917333 157.696c78.848 16.128 149.930667 35.84 214.442666 59.733333l-32.256 49.578667a1214.976 1214.976 0 0 0-210.858666-66.304l28.672-43.008z m-63.914667-89.002667l56.746667 4.778667c-8.362667 68.096-25.685333 112.896-53.162667 134.997333-29.866667 28.672-99.754667 46.592-210.261333 54.954667l-22.698667-51.370667c93.184-3.584 154.112-16.128 183.381333-37.632 26.282667-20.309333 41.216-55.552 45.994667-105.728z" fill="#d81e06" p-id="4086"></path></svg>