<?xml version="1.0" standalone="no"?><!DOCTYPE svg PUBLIC "-//W3C//DTD SVG 1.1//EN" "http://www.w3.org/Graphics/SVG/1.1/DTD/svg11.dtd"><svg t="1694589990420" class="icon" viewBox="0 0 1024 1024" version="1.1" xmlns="http://www.w3.org/2000/svg" p-id="4043" xmlns:xlink="http://www.w3.org/1999/xlink" width="200" height="200"><path d="M511.9232 208.9088c55.3984 22.6048 183.104 74.0864 255.9744 98.304v333.7984c-19.3536 35.0464-98.3296 161.536-254.4256 213.568-160.256-49.6512-238.8608-179.1872-257.4976-213.9776V307.0464c72.8704-24.192 200.5504-75.5712 255.9488-98.1376m0.0128-55.3216s-254.1568 104.3456-307.1616 115.1872v383.9488s86.0672 193.4592 307.1616 254.7712v1.2032C730.752 845.056 819.0976 653.504 819.0976 653.504V268.9536c-53.0048-10.8544-307.1616-115.3664-307.1616-115.3664z" p-id="4044" fill="#1296db"></path><path d="M528.8448 621.1456c18.688 26.624 33.664 50.176 44.928 70.656l29.952-20.736c-12.032-21.248-27.904-44.416-47.616-69.504l-27.264 19.584z m-111.744-286.464c-18.432 58.368-46.464 109.056-84.096 152.064l13.056 42.24c12.288-13.056 23.296-25.728 33.024-38.016v201.6h39.168v-259.968c14.08-24.576 25.856-51.456 35.328-80.64l-36.48-17.28z m241.92 248.832c-3.072 38.144-6.016 57.216-8.832 57.216-3.328 0-8.448-7.424-15.36-22.272-7.168-13.824-13.824-37.632-19.968-71.424-2.048-9.216-3.712-20.992-4.992-35.328h72.96v-38.016h-76.032c-1.792-25.856-2.816-53.504-3.072-82.944 25.088-6.144 46.976-12.288 65.664-18.432l-21.888-31.872c-46.592 15.104-110.336 28.672-191.232 40.704v244.992c0 9.984-5.376 16.768-16.128 20.352l10.368 34.176c26.112-8.704 51.584-17.792 76.416-27.264l-6.528-34.56c-5.632 2.816-14.08 6.784-25.344 11.904v-119.04h76.416c2.56 19.968 5.376 36.864 8.448 50.688 10.24 43.776 22.272 75.392 36.096 94.848 14.336 20.224 27.904 30.336 40.704 30.336 15.872 0 27.648-28.672 35.328-86.016l-33.024-18.048z m-163.968-109.824v-62.208c22.528-3.584 45.824-7.68 69.888-12.288 0.256 24.32 1.28 49.152 3.072 74.496h-72.96z" p-id="4045" fill="#1296db"></path></svg>